<svg width="160" height="160" viewBox="0 0 160 160" fill="none" xmlns="http://www.w3.org/2000/svg">
  <rect width="160" height="160" rx="28" fill="#0F1720"/>
  <rect x="7" y="7" width="146" height="146" rx="21" fill="url(#bg)"/>
  <ellipse cx="80" cy="168" rx="58" ry="40" fill="#D8E2EA"/>
  <path d="M45 137C45 119.327 59.3269 105 77 105H83C100.673 105 115 119.327 115 137V153H45V137Z" fill="#314656"/>
  <path d="M64 106L79 118L95 106L104 153H55L64 106Z" fill="#EAF1F5"/>
  <path d="M67 106L79 117L92 106L79 100L67 106Z" fill="#C7D2DA"/>
  <path d="M60 106L71 153H54L60 106Z" fill="#4A6273"/>
  <path d="M98 106L88 153H106L98 106Z" fill="#4A6273"/>
  <path d="M79 102C67.402 102 58 92.598 58 81V68H100V81C100 92.598 90.598 102 79 102Z" fill="#F7D9C8"/>
  <path d="M58 71C58 56.0883 70.0883 44 85 44H88C100.15 44 110 53.8497 110 66V72L102 67L100 76L95 68L58 71Z" fill="#5A4A40"/>
  <path d="M53 74C53 56.3269 67.3269 42 85 42H87C102.464 42 115 54.536 115 70V81H107V68.5L101 72L98 65L93 72L61 74V84H53V74Z" fill="url(#hair)"/>
  <path d="M61 76C60.4477 76 60 76.4477 60 77V84C60 95.0457 68.9543 104 80 104C91.0457 104 100 95.0457 100 84V77C100 76.4477 99.5523 76 99 76H61Z" fill="#F8DFD0"/>
  <circle cx="71.5" cy="83.5" r="2.5" fill="#26333F"/>
  <circle cx="88.5" cy="83.5" r="2.5" fill="#26333F"/>
  <path d="M74 92C77.3333 94 82.6667 94 86 92" stroke="#CC8E7A" stroke-width="2.5" stroke-linecap="round"/>
  <path d="M60 66C62.5 51.5 72.5 47 82 47C91.5 47 102 52 105 67C98.5 63.5 92.5 58 88 53C81 61 71.5 66 60 66Z" fill="#6A584D"/>
  <defs>
    <linearGradient id="bg" x1="80" y1="7" x2="80" y2="153" gradientUnits="userSpaceOnUse">
      <stop stop-color="#11191F"/>
      <stop offset="1" stop-color="#2E4454"/>
    </linearGradient>
    <linearGradient id="hair" x1="84" y1="42" x2="84" y2="81" gradientUnits="userSpaceOnUse">
      <stop stop-color="#5C4B42"/>
      <stop offset="1" stop-color="#372B24"/>
    </linearGradient>
  </defs>
</svg>
